<?xml version="1.0" encoding="iso-8859-1"?>
<!-- Generator: Adobe Illustrator 19.0.0, SVG Export Plug-In . SVG Version: 6.00 Build 0)  -->
<svg xmlns="http://www.w3.org/2000/svg" xmlns:xlink="http://www.w3.org/1999/xlink" version="1.1" id="Layer_1" x="0px" y="0px" viewBox="0 0 512 512" style="enable-background:new 0 0 512 512;" xml:space="preserve" width="512px" height="512px">
<g>
	<g>
		<path d="M249.814,128.605c1.548,4.485,2.629,9.182,3.162,14.045c2.938-2.212,4.39-3.402,7.397-5.049    c0.199-3.107,0.661-6.106,1.381-8.995H249.814z" fill="#6fbf52"/>
	</g>
</g>
<g>
	<g>
		<path d="M333.238,180.57c-6.605-24.793,4.954-37.522-4.587-65.138c-3.279-9.49-8.741-12.872-14.791-12.872    c-11.557,0-25.258,12.342-29.979,18.034c-3.261,3.931-5.205,8.105-6.218,12.425c0.248-0.004,0.493-0.03,0.742-0.03    c11.801,0,23.078,5.626,30.166,15.049c12.537,16.665,9.197,40.294-7.469,52.832l-18.967,14.268    c0.071,11.268,5.82,18.81,13.673,18.892c12.93,0.136,22.305,3.386,30.725,3.386c4.486,0,8.7-0.922,13.036-3.727    C352.046,225.616,339.843,205.362,333.238,180.57z" fill="#6fbf52"/>
	</g>
</g>
<g>
	<g>
		<path d="M480.179,28.919C480.179,12.973,467.207,0,451.261,0h-289.79c9.738,5.037,17.918,12.68,23.585,22.019h82.354v93.239    c1.124-1.796,2.371-3.535,3.759-5.206c0.489-0.59,7.695-9.156,18.26-15.89V22.019h161.832c3.804,0,6.9,3.095,6.9,6.9v99.686    H348.556c0.98,8.453,0.497,15.677-0.071,22.018h109.677v108.899c0,3.804-3.095,6.9-6.9,6.9H289.429v-16.641    c-7.05-1.659-13.253-5.998-17.555-12.46c-1.941-2.915-3.428-6.162-4.464-9.653v38.754h-62.697v22.018h246.547    c15.946,0,28.919-12.973,28.919-28.919V28.919H480.179z" fill="#6fbf52"/>
	</g>
</g>
<g>
	<g>
		<path d="M134.323,11.009c-23.023,0-41.688,18.664-41.688,41.687c0.001,12.738,5.72,24.133,14.723,31.78l53.844,0.077    c9.054-7.647,14.81-19.077,14.81-31.857C176.011,29.673,157.347,11.009,134.323,11.009z" fill="#6fbf52"/>
	</g>
</g>
<g>
	<g>
		<path d="M294.494,158.628c-6.676-8.876-19.288-10.662-28.166-3.983l-30.44,22.898l-0.14-28.017    c-0.131-26.115-21.485-47.361-47.601-47.361c0,0-33.241,0-107.984,0c-25.927,0-47.467,21.102-47.601,47.361L31.82,297.3    c-0.056,11.109,8.904,20.16,20.013,20.216c0.034,0,0.069,0,0.104,0c10.989,0,20.056-8.898,20.112-20.013L72.79,149.73    c0-0.018,0-0.036,0-0.053c0.027-2.136,1.772-3.849,3.908-3.836c2.136,0.013,3.859,1.748,3.859,3.885    c0.001,47.998,0.009,316.131,0.009,338.135c0,13.331,10.806,24.138,24.138,24.138s24.138-10.806,24.138-24.138V294.93h10.422    v192.932c0,13.331,10.806,24.138,24.138,24.138c13.332,0,24.138-10.806,24.138-24.138c0-31.414-0.438-339.261-0.438-337.913    c0-2.283,1.82-4.151,4.102-4.211c2.282-0.06,4.2,1.709,4.317,3.99c0,0,0,0.001,0,0.002l0.342,68.065    c0.082,16.53,19.022,25.891,32.205,15.973l62.445-46.975C299.389,180.116,301.173,167.506,294.494,158.628z" fill="#6fbf52"/>
	</g>
</g>
<g>
</g>
<g>
</g>
<g>
</g>
<g>
</g>
<g>
</g>
<g>
</g>
<g>
</g>
<g>
</g>
<g>
</g>
<g>
</g>
<g>
</g>
<g>
</g>
<g>
</g>
<g>
</g>
<g>
</g>
</svg>
